<svg width="45" height="37" viewBox="0 0 45 37" fill="none" xmlns="http://www.w3.org/2000/svg">
<g clip-path="url(#clip0_7_280)">
<path d="M20.2788 0.457766L3.81159 7.14773C2.89587 7.51972 2.90536 8.7967 3.82695 9.15548L20.3629 15.5936C21.8158 16.1594 23.4339 16.1594 24.8868 15.5936L41.4231 9.15531C42.3443 8.79687 42.354 7.51989 41.4379 7.14773L24.971 0.457596C23.4687 -0.152695 21.7811 -0.152525 20.2788 0.457766Z" fill="#FFBF00"/>
<path d="M24.0919 19.1093V35.1927C24.0919 35.9577 24.8773 36.4815 25.6016 36.1997L44.0278 29.1776C44.2333 29.0976 44.4096 28.9588 44.5338 28.7793C44.658 28.5998 44.7244 28.3877 44.7243 28.1707V12.0872C44.7243 11.3222 43.9388 10.7985 43.2145 11.0803L24.7882 18.1023C24.5828 18.1823 24.4065 18.3211 24.2823 18.5007C24.1581 18.6802 24.0917 18.8923 24.0917 19.1093" fill="#26B5F8"/>
<path d="M19.7892 19.9392L14.3208 22.5315L13.7655 22.795L2.2217 28.2255C1.48999 28.572 0.555969 28.0485 0.555969 27.2505V12.1546C0.555969 11.8658 0.706834 11.6166 0.909138 11.4288C0.99202 11.3478 1.08603 11.2786 1.18843 11.2232C1.46427 11.0607 1.85783 11.0173 2.19235 11.1473L19.6972 17.9567C20.587 18.3033 20.6569 19.5276 19.7892 19.9392Z" fill="#ED3049"/>
<path d="M19.7893 19.9393L14.3209 22.5316L0.909119 11.429C0.992001 11.3481 1.08601 11.2789 1.18841 11.2234C1.46425 11.0609 1.85781 11.0175 2.19233 11.1475L19.6972 17.957C20.587 18.3035 20.6571 19.5276 19.7893 19.9393Z" fill="black" fill-opacity="0.25"/>
</g>
<defs>
<clipPath id="clip0_7_280">
<rect width="44.1893" height="36.4368" fill="white" transform="translate(0.555969)"/>
</clipPath>
</defs>
</svg>
