<svg width="33" height="37" viewBox="0 0 33 37" fill="none" xmlns="http://www.w3.org/2000/svg">
<path d="M16.493 36.6063L3.37246 32.9639L0.448547 0.169556H32.5767L29.6498 32.9589L16.493 36.6063Z" fill="#264DE4"/>
<path d="M27.1439 30.8709L29.6451 2.85083H16.5126V33.8182L27.1439 30.8709Z" fill="#2965F1"/>
<path d="M7.15134 15.014L7.51178 19.0361H16.5125V15.014H7.15134ZM6.42694 6.87317L6.79254 10.8953H16.5125V6.87317H6.42694ZM16.5125 25.4598L16.4948 25.4645L12.0155 24.255L11.7291 21.0472H7.69149L8.25494 27.3625L16.494 29.6495L16.5125 29.6445V25.4598Z" fill="#EBEBEB"/>
<path d="M25.848 15.014L26.574 6.87317H16.4987V10.8953H22.1662L21.8002 15.014H16.4987V19.0361H21.4515L20.9845 24.2524L16.4986 25.4632V29.6476L24.7441 27.3625L24.8046 26.6829L25.7499 16.094L25.848 15.014Z" fill="white"/>
</svg>
