<svg width="33" height="37" viewBox="0 0 33 37" fill="none" xmlns="http://www.w3.org/2000/svg">
<path d="M32.2577 0.169556L29.3308 32.9589L16.174 36.6063L3.05349 32.9639L0.129578 0.169556H32.2577Z" fill="#E44D26"/>
<path d="M16.1936 33.8184L26.825 30.871L29.3261 2.85095H16.1936V33.8184Z" fill="#F16529"/>
<path d="M10.5037 10.8953H16.1936V6.87317H6.10809L6.20431 7.95221L7.19293 19.0361H16.1936V15.014H10.8713L10.5037 10.8953ZM11.4102 21.0472H7.37264L7.93609 27.3625L16.1751 29.6495L16.1936 29.6445V25.4598L16.176 25.4645L11.6966 24.255L11.4102 21.0472Z" fill="#EBEBEB"/>
<path d="M16.1798 19.0361H21.1326L20.6656 24.2524L16.1797 25.4632V29.6476L24.4253 27.3625L24.4857 26.6829L25.431 16.094L25.5291 15.014H16.1798V19.0361ZM16.1798 10.8854V10.8953H25.8951L25.9757 9.99128L26.1591 7.95221L26.2551 6.87317H16.1798V10.8854Z" fill="white"/>
</svg>
