<svg width="38" height="37" viewBox="0 0 38 37" fill="none" xmlns="http://www.w3.org/2000/svg">
<g clip-path="url(#clip0_7_271)">
<path d="M1.01413 0.570312H36.6493V36.2058H1.01413V0.570312Z" fill="#F0DB4F"/>
<path d="M33.733 27.7067C33.4719 26.081 32.4118 24.7154 29.2717 23.4421C28.1809 22.9408 26.9648 22.5819 26.6024 21.7552C26.4738 21.2741 26.4567 21.0032 26.5381 20.7119C26.7718 19.7669 27.8999 19.4722 28.7941 19.7432C29.3699 19.9362 29.9151 20.38 30.2438 21.088C31.7816 20.0922 31.7785 20.0988 32.8522 19.4145C32.4591 18.805 32.2493 18.5237 31.992 18.263C31.0671 17.23 29.8069 16.6979 27.7915 16.7386L26.7416 16.8744C25.7356 17.1286 24.7769 17.6567 24.2147 18.3646C22.5278 20.2787 23.0089 23.6286 25.0616 25.0072C27.0838 26.525 30.0545 26.8703 30.434 28.2897C30.8032 30.0272 29.157 30.5897 27.5208 30.3899C26.3149 30.1391 25.6443 29.5262 24.9192 28.4118C23.5847 29.1841 23.5847 29.1841 22.2127 29.9731C22.538 30.6845 22.8799 31.0065 23.4253 31.6228C26.0066 34.2411 32.4662 34.1124 33.6248 30.1494C33.6717 30.0133 33.9837 29.1058 33.733 27.7067ZM20.3866 16.9484H17.0534L17.0398 25.5657C17.0398 27.3984 17.1346 29.0785 16.8365 29.5934C16.3489 30.6062 15.0853 30.4807 14.5094 30.2843C13.9233 29.9962 13.6252 29.5866 13.28 29.0076C13.1852 28.8413 13.114 28.7127 13.0901 28.7027L10.3801 30.3623C10.8307 31.2872 11.4946 32.0899 12.3448 32.6114C13.615 33.3737 15.3221 33.6074 17.1075 33.1975C18.2695 32.8591 19.2721 32.1579 19.797 31.0907C20.5559 29.6916 20.3931 27.9982 20.3863 26.1251C20.4033 23.0692 20.3866 20.0139 20.3866 16.9484Z" fill="#323330"/>
</g>
<defs>
<clipPath id="clip0_7_271">
<rect width="36.4368" height="36.4368" fill="white" transform="translate(0.61322 0.169556)"/>
</clipPath>
</defs>
</svg>
