<svg width="37" height="37" viewBox="0 0 37 37" fill="none" xmlns="http://www.w3.org/2000/svg">
<g clip-path="url(#clip0_7_166)">
<path d="M27.7131 0.387939H8.58807C3.92817 0.387939 0.150574 4.16554 0.150574 8.82544V27.9504C0.150574 32.6103 3.92817 36.3879 8.58807 36.3879H27.7131C32.373 36.3879 36.1506 32.6103 36.1506 27.9504V8.82544C36.1506 4.16554 32.373 0.387939 27.7131 0.387939Z" fill="#0073AA"/>
<path d="M6.08692 18.3872C6.08692 23.1621 8.86187 27.2886 12.8857 29.2441L7.13134 13.4778C6.44154 15.0225 6.08564 16.6954 6.08692 18.3872ZM26.2939 17.7784C26.2939 16.2876 25.7584 15.2552 25.2991 14.4515C24.6875 13.4578 24.1143 12.6163 24.1143 11.6227C24.1143 10.5137 24.9554 9.48151 26.14 9.48151C26.1936 9.48151 26.2442 9.48812 26.2964 9.49108C24.1502 7.52486 21.2909 6.32434 18.1502 6.32434C13.9359 6.32434 10.228 8.48659 8.07114 11.7617C8.35407 11.7702 8.62084 11.7762 8.84739 11.7762C10.1092 11.7762 12.0624 11.6229 12.0624 11.6229C12.7126 11.5847 12.7894 12.5398 12.1397 12.6167C12.1397 12.6167 11.4862 12.6937 10.759 12.7318L15.1519 25.7984L17.7918 17.8808L15.9124 12.7314C15.2628 12.6932 14.6475 12.6163 14.6475 12.6163C13.9974 12.5782 14.0736 11.5843 14.7237 11.6227C14.7237 11.6227 16.7158 11.7757 17.9011 11.7757C19.1628 11.7757 21.1161 11.6227 21.1161 11.6227C21.7669 11.5843 21.8432 12.5394 21.1934 12.6163C21.1934 12.6163 20.5385 12.6932 19.8128 12.7314L24.1723 25.6989L25.3755 21.6782C25.897 20.0095 26.2939 18.8111 26.2939 17.7784Z" fill="white"/>
<path d="M18.362 19.4423L14.7426 29.9596C15.8491 30.2856 16.9967 30.4511 18.1503 30.4511C19.5147 30.4516 20.8692 30.2204 22.1562 29.7673C22.1227 29.7145 22.094 29.6589 22.0704 29.6011L18.362 19.4423ZM28.7353 12.5995C28.7902 13.0106 28.8173 13.425 28.8166 13.8398C28.8166 15.0639 28.5879 16.4401 27.8993 18.1608L24.2145 28.8144C27.8009 26.723 30.2131 22.8377 30.2131 18.3873C30.2133 16.2899 29.6776 14.3176 28.7353 12.5995Z" fill="white"/>
<path d="M18.1503 4.32544C10.3965 4.32544 4.08807 10.6335 4.08807 18.3871C4.08807 26.1417 10.3965 32.4495 18.1503 32.4495C25.9037 32.4495 32.2131 26.1417 32.2131 18.3871C32.2128 10.6335 25.9037 4.32544 18.1503 4.32544ZM18.1503 31.805C10.752 31.805 4.73284 25.7857 4.73284 18.3871C4.73284 10.989 10.7519 4.9702 18.1503 4.9702C25.5482 4.9702 31.5669 10.989 31.5669 18.3871C31.5669 25.7857 25.5482 31.805 18.1503 31.805Z" fill="white"/>
</g>
<defs>
<clipPath id="clip0_7_166">
<rect width="36" height="36" fill="white" transform="translate(0.150574 0.387939)"/>
</clipPath>
</defs>
</svg>
