<svg width="36" height="36" viewBox="0 0 36 36" fill="none" xmlns="http://www.w3.org/2000/svg">
<path d="M28.9208 27.3292C29.0254 27.4337 29.1083 27.5578 29.1648 27.6944C29.2214 27.8309 29.2505 27.9773 29.2505 28.1251C29.2505 28.273 29.2214 28.4193 29.1648 28.5559C29.1083 28.6925 29.0254 28.8166 28.9208 28.9211C28.8163 29.0256 28.6922 29.1085 28.5557 29.1651C28.4191 29.2216 28.2727 29.2508 28.1249 29.2508C27.9771 29.2508 27.8307 29.2216 27.6941 29.1651C27.5576 29.1085 27.4335 29.0256 27.329 28.9211L17.9999 19.5906L8.67083 28.9211C8.45973 29.1322 8.17343 29.2508 7.87489 29.2508C7.57636 29.2508 7.29005 29.1322 7.07896 28.9211C6.86786 28.71 6.74927 28.4237 6.74927 28.1251C6.74927 27.8266 6.86786 27.5403 7.07896 27.3292L16.4094 18.0001L7.07896 8.67107C6.86786 8.45998 6.74927 8.17367 6.74927 7.87514C6.74927 7.5766 6.86786 7.2903 7.07896 7.0792C7.29005 6.8681 7.57636 6.74951 7.87489 6.74951C8.17343 6.74951 8.45973 6.8681 8.67083 7.0792L17.9999 16.4097L27.329 7.0792C27.5401 6.8681 27.8264 6.74951 28.1249 6.74951C28.4234 6.74951 28.7097 6.8681 28.9208 7.0792C29.1319 7.2903 29.2505 7.5766 29.2505 7.87514C29.2505 8.17367 29.1319 8.45998 28.9208 8.67107L19.5904 18.0001L28.9208 27.3292Z" fill="black"/>
</svg>
